<svg width="122" height="87" viewBox="0 0 122 87" fill="none" xmlns="http://www.w3.org/2000/svg">
<g clip-path="url(#clip0_43_42)">
<rect x="102.317" y="-0.171783" width="20.0941" height="46.9524" transform="rotate(1 102.317 -0.171783)" fill="white"/>
<path d="M28.785 0.392386C27.5004 0.863239 27.1579 2.19732 27.9714 3.33522C28.6137 4.19845 28.9991 4.31616 31.4397 4.31616C33.8803 4.31616 34.2657 4.19845 34.8652 3.37446C35.7215 2.19732 35.1221 0.588575 33.7091 0.274672C32.3389 -0.0784674 29.8982 8.09878e-06 28.785 0.392386Z" fill="#890589"/>
<path d="M38.0758 0.35314C37.4335 0.510091 36.834 1.05942 36.5771 1.72646C35.9348 3.41369 37.3907 4.31615 40.8161 4.31615C43.7706 4.31615 44.4985 4.70853 44.4985 6.31728C44.4985 7.65136 43.1283 8.6323 41.2871 8.6323C39.7029 8.6323 38.9321 9.26011 38.9321 10.4372C38.9321 12.2422 39.8741 12.5561 45.569 12.5561C50.7072 12.5561 50.9212 12.5953 51.5635 13.4978C52.3343 14.5572 51.8633 16.2052 50.7072 16.6368C50.3218 16.7545 46.0828 16.8722 41.2871 16.8722C31.8671 16.8722 31.5674 16.9507 31.5674 19.0695C31.5674 20.7568 32.2097 20.9922 37.5619 21.1099C40.3023 21.1884 42.8286 21.4238 43.1283 21.6592C43.7706 22.1693 43.8134 24.0135 43.1283 24.6413C42.7858 24.9552 40.9874 25.1122 37.8189 25.1122C33.3229 25.1122 32.9376 25.1514 32.3381 25.9754C31.4389 27.1525 31.4817 27.7019 32.5094 28.6436C33.3229 29.3891 33.9224 29.4283 44.4985 29.4283C55.0318 29.4283 55.6313 29.4676 56.0594 30.1738C56.6589 31.2333 56.6161 32.018 55.8025 32.7243C55.2459 33.2736 53.6616 33.3521 44.9267 33.3521C33.8796 33.3521 33.3658 33.4306 33.3658 35.4709C33.3658 37.3543 34.479 37.6682 40.5592 37.6682C46.0828 37.6682 46.2112 37.6682 46.8963 38.6492C47.5386 39.5517 47.5386 39.7086 46.8963 40.6111C46.2112 41.5528 46.04 41.592 41.6725 41.592C36.363 41.592 35.5067 41.8667 35.5067 43.7501C35.5067 44.6918 35.7636 45.2411 36.3202 45.5158C36.7912 45.712 39.8313 45.9082 43.1711 45.9082C48.0524 45.9082 49.2513 46.0259 49.808 46.536C50.6215 47.2423 50.6643 48.027 50.0649 49.0864C49.6367 49.7535 49.1229 49.832 45.1408 49.832C40.5164 49.832 38.5468 50.3028 38.4611 51.3622C38.2899 53.5988 39.1462 54.1481 43.0427 54.1481C47.0676 54.1481 48.3093 55.129 47.0676 57.3264C46.6394 57.9934 46.0828 58.0719 40.5164 58.0719C33.8368 58.0719 32.5094 58.425 32.5094 60.23C32.5094 62.3096 32.8519 62.388 45.5261 62.388C56.3164 62.388 57.2584 62.4273 57.9006 63.0943C58.7998 63.9968 58.7998 64.7423 58.0291 65.7625C57.4724 66.4688 56.7017 66.508 47.4958 66.7042C38.1186 66.9004 37.5191 66.9396 36.9625 67.6851C36.4915 68.3129 36.4915 68.6661 36.9197 69.4508L37.4763 70.4318L52.2058 70.5495C65.1369 70.628 67.0209 70.7064 67.706 71.295C68.7337 72.119 68.6908 73.1784 67.6204 74.1594C66.8068 74.9049 64.8727 74.8218 54.0833 74.9441L44.7082 75.0504L43.5565 75.9251C43.2871 76.6174 43.6199 77.5412 43.8134 77.8869L45.2524 78.8945L53.4475 78.8679C57.3068 78.8554 62.3966 78.9464 63.0388 79.5742C64.1521 80.7121 63.938 81.9284 62.4822 82.7524L61.1548 83.4587L63.6383 84.2827C74.2572 87.8926 88.3873 87.8926 99.0062 84.3612C105.6 82.1246 111.423 78.0047 115.277 72.786C117.332 70.0394 120.801 62.7412 121.529 59.7199C121.871 58.2681 122 48.7725 122 28.8397V-1.26165e-08H111.98H102.003L101.618 28.5651L101.233 57.1302L99.6485 60.1122C96.8653 65.2132 91.2561 69.2546 85.5612 70.2356C81.1081 71.0203 76.6122 70.4318 72.3304 68.5876C68.6052 66.9396 64.409 62.545 62.6106 58.4643C61.8827 56.8555 61.8399 54.3443 61.6258 28.4474L61.4117 0.196189L50.279 0.117713C44.156 0.117713 38.6752 0.196189 38.0758 0.35314ZM121.529 24.0135C121.529 47.2815 121.529 47.6346 120.758 45.5158C118.274 38.4922 112.794 32.685 105.643 29.5068L102.346 28.055L102.303 14.2041V0.392378H111.937H121.571L121.529 24.0135Z" fill="#890589"/>
<path d="M15.9392 17.0684C14.7831 17.814 14.6547 19.305 15.6395 20.1682C16.1962 20.6783 17.4807 20.796 22.833 20.796C29.9836 20.796 30.4975 20.6391 30.4975 18.5987C30.4975 16.833 29.898 16.6761 23.1755 16.5583C17.9517 16.4799 16.71 16.5583 15.9392 17.0684Z" fill="#890589"/>
<path d="M0.481706 25.583C-0.160569 26.1716 -0.160569 27.9765 0.481706 28.5651C1.1668 29.1929 6.47627 29.1929 7.16136 28.5651C7.46109 28.2904 7.67518 27.6234 7.67518 27.0741C7.67518 26.5247 7.46109 25.8577 7.16136 25.583C6.47627 24.9552 1.1668 24.9552 0.481706 25.583Z" fill="#890589"/>
<path d="M11.1858 25.583C10.5435 26.1716 10.5435 27.9765 11.1858 28.5651C11.5284 28.879 13.969 29.0359 19.3213 29.0359L25.2518 29.0186C25.5725 29.0176 25.8931 29.0019 26.2121 28.9713C26.6204 28.9322 27.5492 28.4154 27.8479 27.6221C27.8506 27.615 27.8532 27.6079 27.8558 27.6008C27.9793 27.2634 27.7423 26.6959 27.5544 26.3734L27.5206 26.3153C27.3089 25.9518 26.9935 25.6479 26.608 25.436C26.2224 25.2241 25.7813 25.1122 25.3318 25.1122H19.3213C13.969 25.1122 11.5284 25.2691 11.1858 25.583Z" fill="#890589"/>
<path d="M20.8634 34.333C20.5208 35.0786 20.5208 35.5494 20.8634 36.2949C21.3344 37.2366 21.4628 37.2759 25.7875 37.2759C30.5403 37.2759 31.2254 37.0405 31.2254 35.314C31.2254 33.5875 30.5403 33.3521 25.7875 33.3521C21.4628 33.3521 21.3344 33.3913 20.8634 34.333Z" fill="#890589"/>
<path d="M13.5845 50.2635C12.4712 50.8521 12.5997 52.7747 13.7558 53.5203C14.5693 54.0304 16.3249 54.1481 24.1606 54.1481C31.9964 54.1481 33.7519 54.0304 34.5655 53.5203C35.7644 52.7355 35.85 50.8129 34.6939 50.2243C33.5807 49.7142 14.5693 49.7142 13.5845 50.2635Z" fill="#890589"/>
<path d="M21.9238 59.9068C21.9322 61.5951 21.7288 62.3831 27.372 62.388C30.5527 62.3908 31.3239 62.1694 31.4131 59.7964C31.4566 58.6406 30.3736 58.239 26.9896 58.2035C23.6433 58.206 21.9189 58.9123 21.9238 59.9068Z" fill="#890589"/>
<path d="M106.777 4.434V9.86841H106.119V5.12391H106.087L104.76 6.00488V5.33619L106.119 4.434H106.777Z" fill="#890589"/>
<path d="M116.845 4.434V9.86841H116.187V5.12391H116.155L114.828 6.00488V5.33619L116.187 4.434H116.845Z" fill="#890589"/>
<path d="M116.934 14.6603V20.0947H116.276V15.3502H116.244L114.917 16.2312V15.5625L116.276 14.6603H116.934Z" fill="#890589"/>
<path d="M106.936 20.2652C106.536 20.2652 106.195 20.1564 105.914 19.9388C105.633 19.7195 105.418 19.4019 105.269 18.9862C105.121 18.5687 105.046 18.0646 105.046 17.4737C105.046 16.8864 105.121 16.3849 105.269 15.9692C105.42 15.5517 105.635 15.2333 105.917 15.0139C106.2 14.7928 106.539 14.6822 106.936 14.6822C107.332 14.6822 107.671 14.7928 107.952 15.0139C108.235 15.2333 108.451 15.5517 108.599 15.9692C108.75 16.3849 108.825 16.8864 108.825 17.4737C108.825 18.0646 108.751 18.5687 108.602 18.9862C108.453 19.4019 108.239 19.7195 107.957 19.9388C107.676 20.1564 107.335 20.2652 106.936 20.2652ZM106.936 19.6814C107.332 19.6814 107.64 19.4904 107.859 19.1083C108.078 18.7262 108.188 18.1813 108.188 17.4737C108.188 17.0032 108.138 16.6025 108.037 16.2717C107.938 15.9409 107.795 15.6888 107.607 15.5154C107.421 15.342 107.197 15.2554 106.936 15.2554C106.543 15.2554 106.236 15.4491 106.015 15.8365C105.794 16.2221 105.683 16.7679 105.683 17.4737C105.683 17.9443 105.733 18.3441 105.832 18.6731C105.931 19.0021 106.073 19.2525 106.259 19.4241C106.447 19.5956 106.672 19.6814 106.936 19.6814Z" fill="#890589"/>
</g>
<defs>
<clipPath id="clip0_43_42">
<rect width="122" height="87" fill="white"/>
</clipPath>
</defs>
</svg>
